# xmcd
#
# Track frame offsets: 
#        150
#        15600
#        33290
#        52607
#        71892
#        88380
#        103445
#        122100
#        139275
#        156670
#
# Disc length: 2298 seconds
#
# Revision: 2
# Processed by: cddbd v1.5.2PL0 Copyright (c) Steve Scherf et al.
# Submitted via: ExactAudioCopyFreeDBPlugin 1.0
#
DISCID=9208f80a
DTITLE=渡辺美奈代 - My Boy -歌え! 太陽-
DYEAR=1988
DGENRE=Pop
TTITLE0=My Boy
TTITLE1=北北西の風
TTITLE2=ちょっとFallin'Love (ニュー・ミックス・ロング・バージョン)
TTITLE3=靴をはいたサマー
TTITLE4=ロリータROSE
TTITLE5=ガラスの一秒
TTITLE6=One Boy
TTITLE7=きっと、きっと
TTITLE8=ほめてよHold Me Tight (ニュー・ミックス・バージョン)
TTITLE9=My Boy Reprise 〜さよならは笑顔で〜
EXTD=
EXTT0=
EXTT1=
EXTT2=
EXTT3=
EXTT4=
EXTT5=
EXTT6=
EXTT7=
EXTT8=
EXTT9=
PLAYORDER=
